<?xml version="1.0" encoding="utf-8"?>
<!-- Generator: Adobe Illustrator 16.0.0, SVG Export Plug-In . SVG Version: 6.00 Build 0)  -->
<!DOCTYPE svg PUBLIC "-//W3C//DTD SVG 1.1//EN" "http://www.w3.org/Graphics/SVG/1.1/DTD/svg11.dtd">
<svg version="1.1" id="Layer_1" xmlns="http://www.w3.org/2000/svg" xmlns:xlink="http://www.w3.org/1999/xlink" x="0px" y="0px"
	 width="510.236px" height="510.236px" viewBox="0 0 510.236 510.236" enable-background="new 0 0 510.236 510.236"
	 xml:space="preserve">
<g id="Layer_1_1_" display="none">
	<g display="inline">
		<path d="M337.894,206.938c0,4.284,0.078,8.568-0.032,12.848c-0.061,2.348,1.143,2.738,3.116,2.736
			c19.648-0.011,39.295,0.014,58.942,0.086c2.084,0.008,3.165-0.618,3.013-2.854c-0.092-1.337,0.124-2.699-0.018-4.026
			c-0.505-4.763,1.368-6.659,6.322-6.423c7.204,0.343,14.441,0.22,21.655,0.01c4.554-0.133,6.469,2.063,6.623,6.269
			c0.104,2.852,0.301,5.733,0.017,8.558c-0.337,3.339,1.007,3.903,4.029,3.714c5.188-0.325,10.405-0.152,15.61-0.209
			c2.903-0.031,5.959,0.631,7.282-3.365c0.519-1.563,2.668-1.748,4.433-1.742c7.221,0.025,14.441,0.064,21.662-0.037
			c3.833-0.055,5.534,1.732,5.513,5.467c-0.036,5.877-0.006,11.754-0.032,17.63c-0.021,4.368-1.65,6.849-6.62,6.651
			c-6.873-0.275-13.767-0.096-20.65,0.004c-2.198,0.031-4.523-0.389-5.02-2.463c-0.933-3.898-3.521-3.699-6.447-3.645
			c-5.204,0.099-10.413,0.141-15.615-0.004c-2.687-0.074-4.397,0.666-3.943,3.604c0.937,6.039-2.907,9.029-6.675,12.932
			c-8.448,8.749-18.011,12.346-30.086,11.146c-7.639-0.758-15.427,0.119-23.143-0.012c-4.092-0.068-7.563,0.696-10.272,4.028
			c-4.184,5.142-10.143,4.771-15.795,4.394c-4.593-0.305-5.236,1.537-4.755,5.498c1.263,10.408,5.394,19.943,8.56,29.774
			c2.712,8.419,1.056,11.427-7.327,14.188c-9.673,3.185-19.273,6.589-28.887,9.959c-9.388,3.291-12.959,1.563-16.316-7.947
			c-6.129-17.359-11.734-34.836-12.017-55.05c-2.471,4.147-4.403,7.062-6.004,10.147c-3.813,7.358-10.081,10.403-18.032,10.563
			c-5.54,0.108-11.084,0.161-16.624,0.069c-2.311-0.037-3.703,0.742-4.671,2.891c-2.473,5.482-5.076,10.906-7.741,16.299
			c-0.68,1.376-0.774,2.378,0.326,3.561c3.135,3.371,2.135,6.774-0.251,9.984c-2.596,3.489-6.173,4.844-10.198,3.102
			c-7.979-3.457-15.908-7.063-23.669-10.979c-3.94-1.986-6.466-5.433-5.835-10.219c0.398-3.036-0.681-4.73-3.283-6.432
			c-6.864-4.486-13.424-9.438-20.129-14.17c-2.845-2.011-4.003-4.604-3.867-8.155c0.239-6.204-0.036-12.427,0.148-18.636
			c0.081-2.717-0.419-3.809-3.519-3.619c-5.856,0.361-11.749,0.246-17.625,0.205c-2.61-0.019-5.182,0.334-7.061,2.088
			c-7.095,6.625-14.338,13.09-17.935,22.611c-2.71,7.178-5.958,14.164-9.232,21.11c-1.166,2.474-1.406,4.414-0.059,6.931
			c2.959,5.522-1.468,12.618-7.792,12.803c-1.667,0.049-3.264-0.195-4.904-0.784c-8.801-3.153-17.702-6.022-26.484-9.224
			c-9.587-3.494-12.038-12.184-5.408-19.875c8.191-9.502,15.723-19.705,26.383-26.787c1.566-1.041,2.801-2.467,1.568-4.141
			c-3.398-4.619-2.738-9.863-2.696-15.002c0.024-2.934-0.965-4.395-4.069-4.193c-1.665,0.109-3.379-0.332-5.024-0.137
			c-8.244,0.984-14.161-2.003-19.111-8.884c-4.298-5.976-3.384-11.633-1.396-17.553c1.844-5.491,6.093-8.364,11.898-8.38
			c24.682-0.059,49.365-0.148,74.046,0.076c6.993,0.063,7.747,1.387,7.747,8.657c0.001,8.981,0.001,8.977,8.878,8.975
			c19.479-0.006,38.96-0.139,58.437,0.085c4.759,0.055,8.856-0.984,12.747-3.569c6.526-4.337,13.203-7.313,21.6-5.813
			c5.696,1.019,11.727,0.041,17.596,0.264c3.53,0.133,4.519-1.26,3.829-4.492c-0.243-1.139-0.404-2.364-0.252-3.504
			c0.507-3.822-0.829-5.098-4.757-4.385c-3.346,0.605-6.073-0.424-5.83-4.721c0.082-1.457-0.731-2.365-2.143-2.035
			c-3.747,0.875-8.881-2.752-11.062,3.481c-0.483,1.386-2.317,1.056-3.647,1.062c-3.19,0.012-6.405-0.248-9.566,0.054
			c-4.598,0.44-6.575-1.739-6.654-5.991c-0.11-6.043-0.291-12.099-0.003-18.129c0.3-6.248,2.076-7.463,8.447-6.743
			c2.987,0.337,5.971,0.731,8.965,0.989c1.838,0.158,3.638,0.727,3.715,2.667c0.287,7.226,5.527,2.38,8.252,3.271
			c3.503,1.143,2.685-2.284,2.812-4.23c0.275-4.234,2.408-6.447,6.693-6.455c10.41-0.02,20.821-0.041,31.23-0.029
			c4.187,0.004,6.731,2.07,6.879,6.309c0.101,2.892,1.308,3.785,4.039,3.611c2.844-0.181,5.741-0.331,8.555,0.014
			c7.116,0.876,13.072-0.568,17.541-6.757c1.933-2.677,5.077-3.526,8.521-3.419c5.872,0.185,11.755,0.023,17.631,0.084
			c5.776,0.06,8.378,3.867,5.661,9.068c-4.411,8.452-9.328,16.643-14.025,24.947c-1.222,2.16-3.112,2.789-5.497,2.739
			c-4.532-0.097-9.068-0.098-13.601,0.003C342.63,210.001,339.841,210.118,337.894,206.938z M209.775,256.328
			c0-0.019,0-0.036,0-0.056c-1.172,0-2.345-0.023-3.518,0.004c-13.312,0.324-10.639-1.811-11.738,11.396
			c-0.905,10.855,1.803,18.92,12.071,23.611c0.298,0.136,0.533,0.4,0.804,0.6c1.875,1.378,2.889,0.955,4.179-1.13
			c4.92-7.948,10.15-15.702,15.233-23.548c3.896-6.018,1.775-10.329-5.482-10.83C217.492,256.108,213.626,256.328,209.775,256.328z
			 M296.567,243.106c0,0.008,0,0.014,0,0.021c-5.529,0-11.059-0.018-16.586,0.007c-3.655,0.015-5.477,1.942-5.675,5.544
			c-0.215,3.854,1.515,6.291,5.402,6.338c10.886,0.133,21.772,0.088,32.657-0.029c3.796-0.042,5.928-2.231,5.777-6.064
			c-0.156-4.014-2.372-5.949-6.5-5.846C306.621,243.202,301.593,243.106,296.567,243.106z M261.616,286.917
			c2.003,0,4.021,0.146,6.007-0.032c3.516-0.315,5.154-2.741,5.896-5.875c0.498-2.106,0.999-4.303-1.181-5.931
			c-3.887-2.907-13.547-0.387-15.687,4.102C252.893,287.063,252.893,287.063,261.616,286.917z M323.67,210.929
			c-1.358-0.668-1.643-0.926-1.931-0.932c-3.014-0.051-6.026-0.076-9.041-0.08c-7.417-0.01-7.265-0.012-6.976,7.253
			c0.153,3.841,1.225,6.022,5.543,5.337c1.47-0.234,3.018-0.149,4.513-0.019c2.508,0.22,3.819-0.554,3.457-3.327
			C318.787,215.722,319.192,212.577,323.67,210.929z M334.813,315.106c0.085-3.858-2.152-5.58-6.034-4.455
			c-3.173,0.918-6.345,1.854-9.472,2.914c-2.108,0.716-5.309,0.377-3.85,4.551c1.161,3.316,2.55,4.646,6.117,3.179
			c3.499-1.438,7.221-2.333,10.789-3.617C333.451,317.286,335.193,317.208,334.813,315.106z M315.576,301.157
			c0.499-0.051,1.019-0.034,1.494-0.165c3.039-0.835,6.048-1.785,9.106-2.538c2.931-0.721,4.525-1.444,3.527-5.385
			c-1.1-4.348-3.336-3.123-5.848-2.478c-3.214,0.827-6.377,1.866-9.616,2.571c-1.974,0.43-3.342,1.277-2.348,3.266
			C312.767,298.175,311.714,301.688,315.576,301.157z M405.078,242.454c-6.871-0.176-6.65-0.165-6.913,5.101
			c-0.196,3.964,1.156,5.599,5.157,5.143c1.983-0.226,4.015-0.074,6.022-0.063c2.458,0.016,3.529-1.135,3.747-3.637
			C413.597,243.172,413.056,242.656,405.078,242.454z M378.132,252.604c3.413,0,7.104,1.016,6.862-4.574
			c-0.158-3.71-1.023-5.794-5.173-5.127c-3.396,0.545-8.146-1.645-8.208,4.914C371.563,253.04,374.783,252.824,378.132,252.604z
			 M349.159,243.083c-3.43-0.575-5.992,0.485-5.941,4.436c0.041,3.318,1.304,5.516,5.461,5.268c3.752-0.225,5.872-1.021,5.917-5.351
			C354.638,243.297,352.495,242.708,349.159,243.083z"/>
		<path d="M61.389,167.05c11.373,0.632,23.619,5.908,33.42,16.535c1.976,2.143,3.083,4.723,3.414,7.653
			c0.623,5.521-0.808,7.673-6.245,8.644c-6.069,1.086-12.162,2.063-18.27,2.91c-20.629,2.861-26.873,32.21-16.715,42.217
			c11.989,11.811,5.219,23.311-4.507,30.784c-5.315,4.085-11.58,5.884-18.155,6.485c-1.849,0.171-4.391,0.994-5.458-1.293
			c-1.145-2.449-0.214-5.043,1.438-6.981c1.258-1.478,3.063-2.551,4.756-3.589c8.045-4.938,8.442-9.119,1.488-15.691
			c-5.964-5.634-12.181-11.023-17.065-17.705c-2.825-3.863-4.817-8.087-5.038-12.883c-0.403-8.713-0.501-17.471,0.65-26.113
			c0.735-5.521,3.634-10.365,7.313-14.592C30.57,174.061,45.868,167.14,61.389,167.05z"/>
	</g>
</g>
<g id="Layer_10" display="none">
	<g display="inline">
		<path d="M255.119,14.173c-110.115,0-199.381,89.266-199.381,199.381c0,60.708,27.141,115.072,69.942,151.64l57.616-17.553
			c-47.776-25.644-80.268-76.067-80.268-134.087c0-34.021,11.173-65.433,30.047-90.769l34.271,34.271
			c5.86-14.239,15.888-27.403,28.183-37.814l-29.185-29.186c24.981-17.99,55.639-28.593,88.774-28.593
			c83.996,0,152.091,68.093,152.091,152.09c0,33.135-10.613,63.785-28.604,88.767l-34.854-34.854
			c-3.505,15.674-11.977,30.512-23.451,42.545l25.574,25.573c-5.848,4.354-12.005,8.313-18.454,11.806l57.483,17.512
			c42.603-36.564,69.596-90.801,69.596-151.348C454.499,103.439,365.233,14.173,255.119,14.173z"/>
		<g>
			<path d="M471.339,455.489c-7.198-34.342-32.937-51.096-64.622-60.23c-15.218-4.388-30.347-9.072-45.568-13.439
				c-14.65-4.203-29.568-6.973-44.248-10.916c-11.188-3.004-15.464-18.236-15.464-28.543c0-7.971,2.601-15.334,6.993-21.291v-0.428
				c4.222-3.211,8.198-6.778,11.87-10.63L167.346,157.057c-3.608,8.766-5.641,17.937-5.641,27.125l2.998,67.542
				c0,26.785,15.751,53.064,37.998,69.591c4.285,5.916,6.818,13.183,6.818,21.045c0,7.563-2.338,16.182-7.412,21.982
				c-5.896,6.743-16.143,7.215-24.217,9.523c-11.253,3.22-22.65,5.938-33.81,9.486c-26.481,8.418-54.072,14.144-77.214,31.006
				c-21.016,15.313-30.559,36.188-31.145,61.805c-0.235,10.284,5.313,15.404,14.431,16.991c8.12,1.411,16.438,2.461,24.657,2.385
				c122.787-1.136,245.617,3.159,368.363-2.396C475.915,491.664,478.284,488.604,471.339,455.489z"/>
			<path d="M343.751,267.466c1.157-5.181,1.781-10.449,1.781-15.742l2.997-67.542c0-44.144-47.774-87.921-91.917-87.921h-3.988
				c-20.028,0-40.599,9.014-57.097,22.982L343.751,267.466z"/>
		</g>
	</g>
</g>
<g id="protecao" display="none">
	<g display="inline">
		<path d="M384.699,281.015c-16.852,0-33.714,0.377-50.543-0.244c-4.623-0.17-9.934-2.332-13.551-5.278
			c-10.77-8.763-20.7-18.552-31.316-27.515c-2.535-2.142-6.454-3.699-9.747-3.714c-16.567-0.079-33.153,0.165-49.699,0.972
			c-3.556,0.174-7.509,2.527-10.356,4.956c-8.743,7.457-17.133,15.335-25.468,23.251c-4.879,4.637-10.24,7.021-17.155,7.021
			c-34.232,0-68.465,0.241-102.698,0.583c-7.719,0.078-12.173-4-14.12-10.651c-6.426-21.954-12.672-43.965-18.403-66.105
			c-0.872-3.373,0.576-7.955,2.315-11.257c2.84-5.385,6.128-10.863,10.417-15.097c14.608-14.421,16.52-32.059,14.669-51.105
			c-3.121-32.15-6.025-64.319-8.854-96.496c-0.884-10.072,3.319-14.614,13.119-14.833c21.921-0.489,43.841-1.031,65.763-1.32
			c12.62-0.163,15.993,1.953,19.813,14.217c3.631,11.655,6.326,23.62,9.031,35.54c2.308,10.163,7.661,18.031,16.101,23.965
			c2.182,1.533,4.594,2.906,6.354,4.846c12.65,13.953,28.673,16.836,46.646,15.943c17.873-0.89,35.834,0.172,53.74-0.285
			c5.056-0.132,10.639-1.604,14.978-4.16c24.592-14.489,39.823-34.996,43.202-64.409c2.799-24.385,5.677-25.676,30.222-25.266
			c19.511,0.326,39.025,0.417,58.534,0.784c9.763,0.185,11.953,2.213,11.294,12.123c-1.614,24.229-3.861,48.413-5.578,72.634
			c-1.075,15.174-1.979,30.377-2.337,45.58c-0.268,11.351,5.696,20.551,12.969,28.492c13.692,14.943,19.749,30.087,10.112,50.5
			c-6.246,13.235-7.786,28.653-11.799,42.99c-2.956,10.556-6.282,13.009-17.106,13.109c-16.847,0.159-33.696,0.044-50.548,0.044
			C384.699,280.892,384.699,280.952,384.699,281.015z"/>
		<path d="M435.689,395.931c0,18.103,0.22,35.621-0.104,53.136c-0.134,7.274-4.523,12.348-11.779,13.019
			c-18.362,1.702-31.166,12.765-43.435,24.786c-6.727,6.593-14.485,9.263-23.849,9.19c-66.819-0.515-133.643-1.085-200.464-0.911
			c-11.235,0.026-18.718-5.268-25.975-11.885c-12.006-10.952-24.517-20.216-41.667-21.354c-6.504-0.43-11.348-4.139-11.321-11.99
			c0.038-11.987-0.484-23.972-0.476-35.959c0.005-5.805,0.676-11.606,1.101-18.259c11.442,2.518,22.541,4.949,33.631,7.395
			c8.787,1.94,10.901-0.016,9.169-8.705c-1.401-7.033-4.803-12.033-12.435-13.931c-8.503-2.112-16.896-4.831-25.085-7.95
			c-2.304-0.877-4.969-3.89-5.342-6.26c-2.438-15.529-4.385-31.141-6.316-46.748c-1.711-13.814,0.716-16.416,14.938-16.642
			c33.936-0.539,67.875-0.977,101.806-1.771c3.32-0.077,7.225-1.62,9.766-3.774c10.185-8.633,19.932-17.785,29.868-26.717
			c1.379-1.237,2.944-3.359,4.356-3.307c18.131,0.689,37.454-9.407,53.986,6.297c8.514,8.092,17.495,15.743,26.747,22.975
			c3.228,2.521,7.869,4.41,11.92,4.515c34.463,0.885,68.938,1.248,103.41,1.856c10.78,0.188,12.953,3.125,11.671,13.609
			c-1.94,15.877-3.847,31.779-5.014,47.727c-0.409,5.599-2.506,8-7.553,9.383c-7.438,2.033-14.671,4.812-22.099,6.89
			c-7.566,2.119-11.573,6.787-12.788,14.562c-1.139,7.291,0.991,10.078,8.389,8.563c9.641-1.972,19.144-4.608,28.715-6.915
			C430.712,396.45,432.025,396.403,435.689,395.931z M255.6,371.078c0-0.024,0-0.05,0-0.075c-12.292,0-24.635,0.665-36.864-0.22
			c-9.219-0.664-15.875,3.147-22.282,8.604c-4.646,3.956-6.307,13.307-3.006,18.229c4.251,6.332,9.596,5.507,15.249,1.905
			c2.24-1.426,4.5-3.004,6.978-3.838c5.12-1.721,10.365-4.08,15.612-4.219c12.263-0.328,24.588,1.213,36.829,0.672
			c13.365-0.594,26.742-3.08,37.264,8.371c0.484,0.527,1.633,1.051,2.177,0.831c4.671-1.858,10.075-3.019,13.573-6.226
			c1.859-1.709,1.897-8.17,0.143-10.553c-5.97-8.094-13.613-13.941-24.782-13.588C282.873,371.41,269.232,371.078,255.6,371.078z"/>
	</g>
</g>
<g id="substancias" display="none">
	<g display="inline">
		<path d="M491.841,462.055c-12.887,13.715-26.779,26.476-45.678,30.626c-35.225,7.736-64.397-4.425-88.285-30.14
			c-16.553-17.818-24.603-38.712-24.046-63.78c1.044-47.146,0.342-94.332,0.359-141.5c0.017-41.888,26.819-76.894,67.749-85.606
			c29.961-6.379,56.951,1.676,79.576,22.861c3.479,3.26,6.884,6.604,10.323,9.91C491.841,290.3,491.841,376.177,491.841,462.055z
			 M422.335,340.519c-12.981,0-25.978,0.358-38.938-0.137c-7.513-0.285-10.104,2.747-10.034,9.838
			c0.197,19.189-0.101,38.383,0.197,57.568c0.381,24.421,20.713,45.921,44.276,47.278c29.882,1.72,52.211-14.4,54.823-41.71
			c1.953-20.402,1.582-41.067,1.453-61.61c-0.041-6.644-4.082-11.399-11.988-11.276
			C448.865,340.676,435.598,340.526,422.335,340.519z"/>
		<path d="M130.857,285.354c9.979,0,18.404-0.019,26.829,0.004c44.905,0.119,89.813,0.377,134.72,0.232
			c6.649-0.021,8.602,1.838,8.629,8.563c0.145,35.863,0.541,71.731,1.358,107.584c0.771,33.835,11.451,64.026,34.752,89.197
			c0.916,0.991,1.668,2.136,3.429,4.416c-3.443,0.316-5.76,0.726-8.072,0.712c-51.681-0.313-103.357-0.688-155.036-1.015
			c-28.233-0.179-56.472-0.138-84.704-0.526c-7.281-0.1-14.645-0.938-21.803-2.311c-36.519-7.002-50.15-37.127-52.32-65.934
			c-1.19-15.798,2.021-30.802,9.626-44.8c33.067-60.885,66.06-121.81,99.225-182.639c6.587-12.083,10.295-24.375,9.966-38.515
			c-0.763-32.717-0.243-65.465-0.243-98.304c-4.045-1.414-7.828-2.386-11.302-4.016c-10.625-4.984-15.04-14.9-12.257-26.854
			c2.13-9.149,11.775-16.905,21.812-16.918c59.313-0.083,118.625-0.076,177.938,0.002c10.708,0.014,21.5,8.729,22.765,17.888
			c2.036,14.72-3.001,23.24-16.228,27.375c-2.129,0.666-4.311,1.161-7.219,1.936c0,13.198,0.081,26.65-0.02,40.102
			c-0.163,22.31-0.551,44.62-0.564,66.929c-0.004,3.813,0.248,8.467,2.339,11.277c5.367,7.214,3.978,12.988,0.222,20.609
			c-6.588,13.369-11.332,27.646-16.925,41.737c-0.89-1.356-2.691-3.694-4.063-6.261c-8.504-15.892-16.989-31.794-25.274-47.799
			c-1.372-2.65-2.438-5.821-2.451-8.755c-0.162-37.541-0.107-75.083-0.107-113.595c-26.76,0-53.188,0-80.886,0
			c0,1.727-0.007,4.407,0.001,7.087c0.101,32.761,0.627,65.531,0.014,98.279c-0.157,8.359-2.485,17.392-6.305,24.838
			c-13.233,25.809-27.581,51.045-41.453,76.529C135.248,276.081,133.535,279.906,130.857,285.354z M120.896,419.321
			c0.089,10.669,8.025,18.529,18.752,18.578c10.783,0.048,19.668-8.605,19.587-19.075c-0.081-10.599-8.769-19.039-19.645-19.089
			C128.833,399.685,120.801,408.101,120.896,419.321z M210.136,362.874c-0.229-9.91-9.208-17.818-19.931-17.557
			c-10.146,0.248-18.403,8.486-18.305,18.262c0.096,9.464,9.813,18.111,20.003,17.796
			C202.002,381.063,210.36,372.583,210.136,362.874z"/>
	</g>
</g>
<g id="corpo-a-corpo">
	<g>
		<path fill="#FFFFFF" d="M446.676,14.173c3.634,7.977,8.164,15.003,10.104,22.684c8.677,34.337,12.234,69.129,6.651,104.435
			c-4.437,28.055-16.246,52.74-35.719,73.233c-43.147,45.41-86.861,90.277-130.157,135.546c-4.542,4.748-7.944,3.765-11.914,0.063
			c-6.054-5.638-12.216-11.167-18.094-16.981c-21.506-21.272-42.937-42.623-64.322-64.016c-2.127-2.128-3.754-4.756-3.075-5.388
			C281.839,181.052,363.528,98.351,446.676,14.173z"/>
		<path fill="#FFFFFF" d="M153.068,301.961c-2.627-6.558-5.303-12.562-7.44-18.753c-2.205-6.389-0.021-12.212,3.905-17.221
			c6.251-7.978,14.729-8.438,21.896-1.178c6.806,6.894,13.056,14.344,19.948,21.143c31.799,31.357,63.701,62.615,95.667,93.808
			c4.618,4.507,8.663,8.941,5.866,15.938c-3.079,7.702-8.913,12.132-17.109,12.916c-10.882,1.042-19.742-3.75-27.498-10.761
			c-8.717-7.873-17.19-16.018-25.117-23.432c-22.812,21.34-45.021,42.529-67.762,63.131c-6.43,5.826-9.181,11.978-8.415,20.419
			c1.034,11.39-2.09,21.524-10.764,29.425c-11.576,10.541-28.282,12.171-42.184,0.974c-15.342-12.359-29.595-26.412-42.58-41.251
			c-10.772-12.311-9.413-28.674,2.04-40.578c15.229-15.829,31.855-30.311,47.093-46.134c14.712-15.281,28.422-31.522,42.569-47.347
			C146.478,309.378,149.755,305.685,153.068,301.961z"/>
	</g>
</g>
<g id="veiculos" display="none">
	<g display="inline">
		<path d="M397.83,301.542c-0.042-16.252-5.488-29.594-18.152-39.2c-8.713-6.608-19.066-6.928-29.521-6.823
			c-15.699,0.158-36.398,21.087-35.061,48.167c-2.125,0-4.231,0.002-6.338-0.002c-37.155-0.063-74.313-0.188-111.469-0.121
			c-4.918,0.01-7.97-0.326-7.875-6.687c0.16-10.784-4.941-19.767-11.638-27.933c-10.573-12.899-33.936-17.688-48.256-9.674
			c-10.75,6.016-16.229,15.823-19.104,27.392c-2.209,8.89-2.259,9.001-10.523,5.481c-4.117-1.752-8.112-3.849-12.002-6.07
			c-4.648-2.654-7.262-6.157-6.358-12.23c0.746-5.021,0.202-10.322-0.382-15.431c-0.751-6.564,0.434-12.414,3.873-18.095
			c3.52-5.815,6.043-12.263,9.82-17.883c2.467-3.669,5.866-7.502,9.756-9.289c17.643-8.109,35.67-15.376,53.43-23.239
			c8.23-3.644,16.616-5.208,25.616-5.122c28.989,0.276,57.981,0.265,86.974,0.156c7.031-0.026,13.389,1.477,19.447,5.068
			c10.576,6.27,21.688,11.705,31.898,18.507c17.202,11.459,36.558,17.062,56.063,22.557c11.809,3.327,23.691,6.497,35.218,10.638
			c3.812,1.369,7.392,5.049,9.674,8.58c2.831,4.378,4.376,9.64,6.104,14.648c0.539,1.563,0.201,3.646-0.306,5.316
			c-2.36,7.771-5.003,15.456-7.382,23.223c-1.623,5.297-5.015,8.032-10.554,8.061C406.67,301.56,402.553,301.542,397.83,301.542z
			 M311.666,228.371c-11.505-7.116-21.646-13.43-31.85-19.647c-1.231-0.751-2.778-1.375-4.186-1.387
			c-13.093-0.104-26.186-0.062-39.093-0.062c0,7.851,0,15.112,0,22.891C261.324,230.17,285.811,232.838,311.666,228.371z
			 M216.755,206.967c-7.385,0-14.249,0.692-20.914-0.164c-9.842-1.264-16.562,3.161-22.402,10.068
			c-3.326,3.932-2.703,6.184,2.399,7.114c5.025,0.917,10.197,0.999,15.285,1.611c8.501,1.023,16.985,2.178,25.632,3.297
			C216.755,221.849,216.755,214.938,216.755,206.967z"/>
		<path d="M176.37,295.626c-0.061,16.889-12.601,29.803-28.94,29.807c-16.699,0.004-28.546-11.916-28.451-28.632
			c0.094-16.825,13.313-30.467,29.293-30.229C163.681,266.803,176.426,279.981,176.37,295.626z"/>
		<path d="M384.504,296.037c-0.131,17.078-12.755,29.582-29.699,29.416c-15.724-0.154-27.576-12.497-27.563-28.701
			c0.014-16.374,13.263-30.796,28.733-30.423C371.96,266.714,385.641,280.28,384.504,296.037z"/>
	</g>
</g>
<g id="aprimoramento" display="none">
	<g display="inline">
		<path d="M320.027,426.836c0-7.291-0.003-13.758,0.001-20.228c0.012-20.161,0.078-40.323-0.02-60.485
			c-0.015-2.849,0.709-4.315,3.498-5.572c11.356-5.112,15.734-15.209,12.64-28.155c-2.422-10.131-11.695-16.213-23.685-15.535
			c-10.967,0.621-18.938,8.467-20.956,19.858c-1.746,9.861,1.361,17.335,9.756,22.574c4.66,2.912,6.612,6.636,6.534,12.36
			c-0.316,23.158-0.143,46.324-0.148,69.486c0,1.474,0,2.947,0,4.894c-16.071,0-31.79,0-47.84,0
			c-0.157-0.668-0.492-1.435-0.494-2.197c-0.034-14.998-0.205-29.998,0.131-44.987c0.06-2.662,1.615-5.974,3.583-7.791
			c8.078-7.468,11.275-16.246,10.399-27.265c-0.777-9.771,0.098-19.66-0.254-29.479c-0.266-7.438,2.37-13.386,6.669-19.285
			c3.847-5.279,7.477-11.094,9.502-17.234c3.265-9.891-1.69-21.225-10.386-26.986c-8.722-5.781-18.814-5.926-27.221,1.412
			c-5.35,4.669-10.2,5.439-16.562,3.768c-7.203-1.891-14.638-2.893-21.86-4.719c-7.019-1.773-9.017-4.545-9.032-11.703
			c-0.064-28.328,0.039-56.656-0.106-84.982c-0.061-11.486-0.71-22.971-0.884-34.458c-0.108-7.262,2.075-13.568,9.315-16.726
			c7.753-3.379,15.321-2.735,22.151,2.363c4.313,3.22,5.672,8.025,5.767,13.239c0.431,23.808,0.84,47.616,1.319,71.425
			c0.076,3.822,0.508,7.637,0.702,11.459c0.166,3.25,2.176,4.334,5.007,4.148c2.791-0.184,4.745-1.525,4.728-4.668
			c-0.043-7.498-0.018-14.998-0.18-22.494c-0.522-24.133-1.163-48.264-1.63-72.399c-0.067-3.472,0.344-6.995,0.926-10.428
			c1.348-7.957,7.26-12.689,15.43-12.646c13.336,0.073,20.083,6.584,19.973,19.764c-0.271,32.152-0.71,64.303-1.063,96.453
			c-0.021,1.828-0.523,4.098,0.348,5.381c1.23,1.813,3.535,2.895,5.38,4.289c1.252-1.66,3.48-3.262,3.586-4.992
			c0.451-7.475,0.322-14.986,0.331-22.484c0.021-18.494-0.1-36.992,0.068-55.486c0.043-4.62,0.506-9.342,1.58-13.823
			c1.707-7.124,8.211-11.32,15.778-10.919c8.47,0.449,14.602,5.174,15.773,12.578c0.675,4.251,1.105,8.599,1.063,12.896
			c-0.24,24.313-0.682,48.623-0.972,72.934c-0.025,2.113-0.028,4.596,1.01,6.244c1.008,1.6,3.369,2.35,5.136,3.473
			c0.813-1.502,2.316-2.996,2.332-4.506c0.174-17.328,0.121-34.658,0.129-51.988c0.002-5.678,0.509-11.793,6.334-14.094
			c7.021-2.773,14.843-3.486,21.532,1.148c5.339,3.697,5.429,10.082,5.453,15.871c0.125,29.66,0.05,59.32,0.023,88.982
			c-0.014,14.664,0.302,29.34-0.198,43.988c-0.715,20.932-5.085,41.108-14.374,60.045c-0.73,1.488-1.311,3.188-2.433,4.324
			c-6.993,7.067-7.337,15.811-7.106,25c0.32,12.821,0.045,25.66-0.002,38.489c-0.03,8.189-1.741,9.857-10.012,9.867
			C331.188,426.84,325.877,426.836,320.027,426.836z"/>
		<path d="M247.678,426.75c-10.628,0-20.589,0.213-30.533-0.092c-4.898-0.148-5.988-3.99-5.992-8.189
			c-0.015-16.495-0.267-32.997,0.052-49.487c0.191-9.916-2.37-17.92-10.38-24.551c-7.928-6.564-14.754-14.443-22.244-21.558
			c-9.827-9.33-15.829-20.748-19.33-33.692c-6.102-22.563-12.35-45.087-18.434-67.653c-0.771-2.861-1.378-5.902-1.282-8.836
			c0.327-10.102,8.943-16.748,18.851-14.498c4.655,1.057,9.244,2.594,13.688,4.357c11.796,4.68,15.167,14.705,16.566,26.18
			c0.963,7.891,2.729,15.684,4.089,23.527c0.6,3.457,1.925,6.08,5.645,7.312c9.433,3.117,18.72,6.672,28.173,9.723
			c8.259,2.664,14.612,6.66,18.221,15.387c2.003,4.844,6.755,8.928,11.075,12.324c3.766,2.961,5.884,5.875,5.824,10.715
			c-0.167,13.828,0.128,27.664-0.273,41.484c-0.088,3.012-1.59,6.688-3.697,8.809c-7.808,7.857-10.852,16.822-10.199,27.939
			C248.274,399.226,247.678,412.581,247.678,426.75z"/>
		<path d="M277.813,272.153c-0.046,7.729-5.305,13.803-11.956,13.813c-6.98,0.01-12.729-6.344-12.563-13.893
			c0.155-7.07,5.831-12.777,12.581-12.646C272.362,259.551,277.852,265.405,277.813,272.153z"/>
		<path d="M324.664,320.049c-0.274,5.845-5.695,11.039-11.059,10.603c-5.92-0.484-10.686-5.73-10.342-11.383
			c0.363-5.974,5.537-10.177,12.087-9.82C321.235,309.769,324.95,313.997,324.664,320.049z"/>
	</g>
</g>
<g id="armas_x5F_projecao" display="none">
	<path display="inline" d="M495.87,122.027c-0.592-8.701-3.354-11.058-11.889-11.137c-5.986-0.056-11.975-0.012-18.006-0.012
		c0-6.594,0.078-12.044-0.021-17.49c-0.11-6.211-3.629-10.188-9.514-10.413c-6.43-0.244-13.115,0.227-19.326,1.809
		c-7.84,1.996-11.929,8.422-12.346,16.53c-0.142,2.785-0.382,5.564-0.592,8.558c-93.755,0-186.997,0-281.363,0
		c0-9.204,0-17.977,0-27.154c-15.466,0-29.816,0.217-44.155-0.09c-7.417-0.16-13.114,2.177-15.351,9.391
		c-4.664,15.051-13.996,21.862-29.871,18.346c-11.809,32.989-10.499,55.567,0,100.781c8.269,3.214,17.013,4.603,22.537,13.643
		c3.631,5.942,4.83,11.388,2.927,17.062c-8.169,24.339-17.204,40.843-21.537,66.15c-6.331,36.982-43.192,81.584-43.192,119.104
		c17.659,0.118,74.584,0.278,92.242,0.348c17.226,0.065,34.458,0.362,51.672-0.054c12.659-0.305,17.305-9.156,11.069-19.906
		c-1.092-1.883-2.119-3.814-3.354-5.602c-4.335-6.269-4.512-12.746-2.036-19.858c7.061-20.298,14.04-40.634,20.522-61.119
		c1.786-5.644,4.598-7.501,10.22-7.458c24.427,0.184,48.872-0.473,73.277,0.257c16.704,0.5,31.463-10.083,36.946-26.536
		c3.707-11.121,7.467-22.24,10.596-33.529c1.479-5.331,3.873-7.042,9.448-7.004c37.949,0.266,75.9,0.079,113.85,0.182
		c18.12,0.049,28.803-13.244,27.53-27.725c-0.752-8.558-0.137-17.236-0.137-26.089c6.215,0,11.443,0.006,16.67-0.001
		c11.162-0.019,13.451-2.865,13.152-14.194c-0.338-12.816,0-25.651,0.043-38.479C495.907,134.231,496.284,128.102,495.87,122.027z
		 M119.006,152.362c0,2.976-2.411,5.389-5.389,5.389H93.984c-2.978,0-5.389-2.413-5.389-5.389v-21.943
		c0-2.976,2.411-5.389,5.389-5.389h19.633c2.978,0,5.389,2.413,5.389,5.389V152.362z M143.759,171.821
		c-5.061,0-9.161-4.102-9.161-9.162v-0.327c0-5.061,4.102-9.162,9.161-9.162h96.162c5.062,0,9.162,4.102,9.162,9.162v0.327
		c0,5.061-4.102,9.162-9.162,9.162H143.759z M273.746,275.649c-0.349,1.028-2.822,1.887-4.313,1.895
		c-23.042,0.117-46.082,0.081-69.866,0.081c3.101-9.688,5.771-18.588,8.907-27.32c0.562-1.563,3.044-3.452,4.653-3.469
		c22.809-0.226,45.616-0.153,69.694-0.153C279.671,256.931,276.894,266.354,273.746,275.649z M424.591,209.093
		c-30.855,0-61.838,0-93.926,0c1.563-4.637,2.81-8.99,4.559-13.133c0.534-1.266,2.442-2.771,3.729-2.779
		c28.436-0.158,56.871-0.12,85.639-0.12C424.591,198.635,424.591,203.577,424.591,209.093z"/>
</g>
<g id="arsenal" display="none">
	<g display="inline">
		<path d="M482.333,283.464h-42.079v11.372c0,8.806-7.14,15.944-15.945,15.944H85.928c-8.807,0-15.945-7.139-15.945-15.944v-11.372
			H27.904c-7.339,0-13.287,5.948-13.287,13.287v177.166c0,7.339,5.948,13.287,13.287,13.287h454.429
			c7.341,0,13.289-5.948,13.289-13.287V296.751C495.623,289.413,489.674,283.464,482.333,283.464z"/>
		<g>
			<path d="M252.252,122.932v-0.156c0-2.405-1.948-4.354-4.354-4.354h-45.701c-2.406,0-4.355,1.949-4.355,4.354v0.156
				c0,2.404,1.949,4.354,4.355,4.354h45.701C250.303,127.286,252.252,125.336,252.252,122.932z"/>
			<path d="M488.092,98.957h-47.838v-38.98c0-8.806-7.14-15.945-15.945-15.945H85.928c-8.807,0-15.945,7.14-15.945,15.945v38.979
				H22.146c-4.404,0-7.973,3.568-7.973,7.972v46.944c0,4.404,3.568,7.973,7.973,7.973h47.837v101.872
				c0,8.806,7.139,15.944,15.945,15.944h338.38c8.807,0,15.945-7.139,15.945-15.944V161.845h47.838c4.401,0,7.971-3.568,7.971-7.973
				v-46.944C496.062,102.525,492.494,98.957,488.092,98.957z M369.545,112.323c-0.021,6.096-0.183,12.196-0.021,18.287
				c0.144,5.385-0.947,6.737-6.252,6.746c-2.484,0.003-4.967,0-7.922,0c0,4.207-0.293,8.332,0.066,12.398
				c0.604,6.883-4.474,13.199-13.087,13.176c-18.032-0.047-36.069,0.042-54.106-0.086c-2.648-0.018-3.789,0.795-4.488,3.33
				c-1.488,5.364-3.275,10.647-5.037,15.935c-2.604,7.819-9.619,12.849-17.557,12.609c-11.602-0.345-23.219-0.033-34.827-0.122
				c-2.672-0.021-4.008,0.864-4.857,3.546c-3.082,9.736-6.397,19.401-9.754,29.048c-1.176,3.379-1.093,6.459,0.968,9.436
				c0.587,0.852,1.076,1.768,1.596,2.663c2.962,5.109,0.755,9.316-5.262,9.462c-8.181,0.197-16.372,0.057-24.558,0.023
				c-8.392-0.031-35.445-0.106-43.838-0.164c0-17.831,17.519-39.028,20.526-56.605c2.06-12.026,6.354-19.872,10.235-31.438
				c0.904-2.696,0.334-5.284-1.391-8.107c-2.625-4.298-6.78-4.957-10.71-6.484c-4.989-21.487-5.612-32.218,0-47.896
				c7.544,1.672,11.979-1.566,14.196-8.719c1.063-3.428,3.771-4.539,7.296-4.462c6.814,0.146,13.635,0.041,20.983,0.041
				c0,4.363,0,8.532,0,12.906c44.849,0,89.16,0,133.721,0c0.098-1.422,0.213-2.743,0.278-4.066c0.197-3.854,2.142-6.907,5.867-7.857
				c2.951-0.751,6.129-0.975,9.187-0.858c2.797,0.106,4.469,1.997,4.521,4.948c0.045,2.589,0.01,5.179,0.01,8.313
				c2.865,0,5.711-0.021,8.558,0.006c4.055,0.037,5.369,1.157,5.647,5.293C369.734,106.508,369.556,109.421,369.545,112.323z"/>
			<path d="M187.872,105.048h-9.331c-1.414,0-2.56,1.146-2.56,2.561v10.429c0,1.414,1.146,2.562,2.56,2.562h9.331
				c1.415,0,2.563-1.147,2.563-2.562v-10.429C190.433,106.194,189.286,105.048,187.872,105.048z"/>
			<path d="M235.164,162.935c-0.764,0.008-1.943,0.906-2.211,1.65c-1.491,4.15-2.76,8.38-4.232,12.984
				c11.304,0,22.252,0.016,33.203-0.039c0.707-0.005,1.884-0.413,2.05-0.9c1.498-4.417,2.815-8.896,4.313-13.768
				C256.843,162.863,246.004,162.829,235.164,162.935z"/>
			<path d="M293.189,138.758c-0.83,1.969-1.422,4.037-2.164,6.242c15.25,0,29.976,0,44.637,0c0-2.623,0-4.972,0-7.62
				c-13.67,0-27.184-0.018-40.699,0.058C294.353,137.442,293.443,138.157,293.189,138.758z"/>
		</g>
	</g>
</g>
<g id="aliados" display="none">
	<g display="inline">
		<path d="M136.122,484.918c-17.098,0-34.2,0.021-51.3-0.008c-18.412-0.028-27.469-8.52-27.839-27.074
			c-0.381-19.179-0.323-38.375,0.079-57.555c0.155-7.446-1.115-10.815-9.926-11.206c-22.142-0.982-32.922-13.184-32.95-35.348
			c-0.04-29.612,0.503-59.23-0.005-88.838c-0.659-38.435,39.131-86.142,81.885-82.202c27.295,2.514,55.168,2.307,82.502,0.002
			c39.968-3.373,80.144,43.885,79.662,79.168c-0.429,31.273,0.024,62.562-0.127,93.842c-0.102,20.29-10.082,31.206-30.318,31.408
			c-10.521,0.107-12.383,4.408-12.143,13.589c0.524,20.004,0.233,40.035,0.039,60.054c-0.164,16.988-7.359,23.967-24.504,24.05
			c-18.351,0.087-36.702,0.02-55.056,0.02C136.122,484.853,136.122,484.884,136.122,484.918z"/>
		<path d="M372.223,489.806c-17.102,0-34.201,0.002-51.302,0c-16.76-0.005-23.991-7.122-24.082-24.282
			c-0.115-22.523,0.085-45.046,0.075-67.567c0-3.953,1.224-9.068-5.54-8.639c-10.392,0.664-9.447-4.857-6.503-11.578
			c3.745-8.551,4.749-17.514,4.679-26.788c-0.182-24.605-0.574-49.23,0.111-73.816c0.582-20.954-3.206-40.586-14.267-58.4
			c-4.492-7.237-2.726-12.162,3.01-17.238c12.975-11.49,28.156-17.861,45.334-18.108c32.107-0.46,64.232-0.545,96.34-0.059
			c36.743,0.559,75.373,39.772,75.77,76.642c0.345,32.11,0.198,64.229,0.087,96.342c-0.067,20.117-12.322,33.123-32.447,32.926
			c-9.608-0.092-10.771,3.908-10.688,11.82c0.216,20.846,0.355,41.723-0.592,62.538c-0.894,19.579-8.86,26.188-28.686,26.162
			c-17.101-0.022-34.201-0.004-51.299-0.004C372.223,489.772,372.223,489.789,372.223,489.806z"/>
		<path d="M68.714,88.453c0.562-40.487,30.087-68.573,71.432-67.943c37.85,0.576,68.613,32.999,67.938,71.607
			c-0.669,38.313-33.593,68.109-74.512,67.426C96.993,158.936,68.177,127.351,68.714,88.453z"/>
		<path d="M445.913,90.782c-0.313,39.022-31.524,68.996-71.654,68.813c-38.952-0.181-67.538-30.34-67.254-70.96
			c0.271-39.096,31.254-68.476,71.921-68.203C416.883,20.688,446.223,51.501,445.913,90.782z"/>
	</g>
</g>
<g id="recursos" display="none">
	<g display="inline">
		<path d="M263.27,287.964c0.011-31.02-1.144-62.093,0.315-93.047c1.619-34.586-16.877-54.364-45.362-67.771
			c-7.043-3.316-12.889-5.647-12.359-15.121c0.248-4.449-2.058-9.119-5.121-12.963c-14.327-17.969-13.835-37.757-4.176-56.838
			c9.956-19.668,27.468-28.405,49.748-28.039c25.416,0.426,50.847-0.218,76.257,0.281c33.029,0.642,57.587,30.989,50.814,61.861
			c-1.349,6.133-4.691,10.925-8.216,15.838c-10.657,14.858-9.641,25.668,4.873,36.504c10.079,7.534,4.416,17.289,5.459,25.994
			c0.957,8.033-6.732,7.366-11.605,9.213c-34.819,13.191-60.119,36.185-58.409,82.323c1.8,48.618,0.227,97.358,0.691,146.038
			c0.085,9.148-2.637,11.535-11.619,11.51c-31.307-0.09-31.307,0.256-31.301-30.473C263.265,344.84,263.265,316.401,263.27,287.964z
			"/>
		<path d="M233.739,228.458c-0.008,11.199-0.813,22.473,0.21,33.575c1.115,12.071-4.236,19.444-13.881,25.145
			c-30.396,17.962-63.61,22.839-98.016,19.726c-22.207-2.01-43.988-6.826-63.61-18.652c-11.563-6.968-18.405-15.555-17.393-30.197
			c1.654-23.985-1.895-48.142,2.078-72.138c1.52-9.179,6.265-15.658,13.433-21.034c16.327-12.251,35.421-17.344,55.016-19.625
			c33.12-3.853,65.979-3.138,97.054,11.657c17.18,8.179,27.013,20.395,25.271,40.544
			C233.017,207.717,233.746,218.117,233.739,228.458z M138.587,186.525c-14.766-0.877-29.601,1.196-43.955,6.131
			c-3.893,1.338-8.531,2.968-8.704,8.354c-0.179,5.567,4.519,7.125,8.443,8.421c29.465,9.732,58.966,9.758,88.312-0.559
			c3.899-1.369,8.736-2.549,8.401-8.267c-0.32-5.404-5.161-6.86-8.963-8.151C168.19,187.716,153.764,185.744,138.587,186.525z"/>
		<path d="M335.285,369.944c0-22.383,0.126-44.766-0.063-67.143c-0.075-8.33,1.469-10.998,10.07-6.064
			c36.604,21.004,73.554,23.044,110.979,1.298c12.061-7.009,12.702-6.146,12.728,8.598c0.051,39.17,0.03,78.341,0.075,117.506
			c0.035,33.501-13.224,52.015-46.123,60.149c-27.063,6.687-53.025,3.789-73.97-17.38c-8.768-8.868-13.5-19.585-13.364-32.413
			c0.23-21.516,0.065-43.035,0.065-64.551C335.551,369.944,335.416,369.944,335.285,369.944z"/>
		<path d="M233.673,309.931c0,27.209,0.123,53.336-0.074,79.453c-0.061,8.016-6.366,11.654-12.383,15.09
			c-33.02,18.843-68.932,22.177-105.785,18.691c-20.548-1.95-40.368-7.219-58.525-17.79c-10.582-6.161-16.181-14.292-15.823-27.08
			c0.579-20.628,0.135-41.291,0.067-61.935c-0.021-5.783,0.275-9.363,7.768-5.168C109.741,345.256,170.597,342.785,233.673,309.931z
			"/>
		<path d="M405.099,189.959c15.179-0.915,30.308,3.128,43.642,12.818c27.175,19.735,27.391,50.968,0.651,71.076
			c-23.996,18.041-69.332,18.373-93.579,0.678c-27.075-19.752-25.866-54.719,2.701-72.894
			C372.275,192.882,387.499,189.012,405.099,189.959z"/>
		<path d="M44.754,427.066c62.431,31.815,124.897,34.999,187.386,0.296c4.168,33.711,4.916,42.729-31.381,56.71
			c-39.746,15.313-81.166,15.951-121.136,1.96C40.165,472.226,40.681,461.278,44.754,427.066z"/>
	</g>
</g>
<g id="aceleracao" display="none">
	<g display="inline">
		<path d="M287.744,466.83c-1.032,3.771-2.979,7.017-2.53,9.884c2.523,16.09-6.754,16.979-18.946,16.307
			c-13.62-0.754-27.313-0.119-40.974-0.176c-20.614-0.082-31.049-12.119-28.268-32.476c3.224-23.588,10.261-45.873,23.718-65.67
			c4.441-6.533,6.029-13.075,5.696-20.806c-0.697-16.113-0.504-32.264-1.218-48.379c-0.325-7.338,1.799-10.598,9.629-10.414
			c38.688,0.914,55.548-28.488,55.706-60.242c0.167-32.438-26.284-57.606-58.728-57.809c-14.267-0.087-17.193-3.283-15.023-17.874
			c2.06-13.853,4.547-27.65,7.233-41.398c1.722-8.806-0.259-11.31-9.824-9.355c-16.494,3.371-33.191,6.435-50.129,6.615
			c-36.671,0.393-60.052-22.421-61.855-59.438c-0.821-16.852,2.698-32.665,8.714-48.264c3.536-9.168,8.452-13.149,19.146-13.018
			c50.91,0.634,101.854,1.1,152.745-0.129c31.673-0.767,54.918,24.869,56.827,54.892c1.395,21.867-4.911,42.477-8.771,63.483
			c-6.56,35.696-10.271,71.724-13.922,107.789c-3.566,35.255-7.555,70.474-11.726,105.662c-1.262,10.662-1.589,18.702,10.337,25.375
			c14.315,8.006,25.697,20.82,36.05,33.772c20.104,25.158,46.21,37.48,78.057,39.495c22.375,1.41,31.031,7.732,34.978,23.15
			c3.185,12.424-4.237,26.811-16.697,26.645c-38.652-0.508-77.763,6.271-115.881-4.693
			C316.227,485.199,302.437,475.801,287.744,466.83z"/>
		<path d="M230.54,220.636c23.588,0.018,37.021,13.426,36.87,36.795c-0.148,22.28-14.485,36.2-36.812,35.74
			c-21.866-0.445-34.298-13.736-34.289-36.652C196.32,232.904,208.038,220.618,230.54,220.636z"/>
		<path d="M110.289,265.093c15.279,0,30.562,0.143,45.837-0.051c10.106-0.125,15.985,5.236,16.434,14.564
			c0.461,9.592-4.25,16.783-15.194,17.018c-32.18,0.695-64.363,1.512-96.548,1.679c-9.934,0.054-16.163-5.296-15.979-16.29
			c0.177-10.424,5.799-16.27,17.137-16.443c16.102-0.247,32.209-0.063,48.313-0.063
			C110.289,265.368,110.289,265.233,110.289,265.093z"/>
		<path d="M143.787,327.546c12.81,0,25.618,0.041,38.427-0.012c10.437-0.041,16.52,4.447,16.151,15.502
			c-0.351,10.525-5.873,15.477-16.476,15.707c-24.349,0.533-48.684,1.564-73.029,2.141c-12.635,0.297-20.035-5.875-20.395-16.304
			c-0.379-10.981,6.186-16.813,19.373-16.944c11.983-0.117,23.967-0.023,35.949-0.023
			C143.787,327.592,143.787,327.565,143.787,327.546z"/>
		<path d="M132.364,198.262c11.587,0,23.173-0.037,34.762,0.011c9.914,0.042,15.459,4.998,15.81,14.977
			c0.372,10.622-5.131,16.075-15.662,16.41c-22.739,0.724-45.478,1.529-68.223,1.985c-10.439,0.208-18.943-7.75-19.025-17
			c-0.093-10.29,6.56-16.098,18.82-16.208c11.173-0.1,22.346-0.022,33.52-0.022C132.364,198.364,132.364,198.313,132.364,198.262z"
			/>
	</g>
</g>
<g id="mutacao" display="none">
	<path display="inline" d="M215.393,397.249c1.733,42.757-15.522,71.834-50.393,88.862c-32.7,15.97-65.345,12.583-94.745-9.173
		c-32.762-24.241-44.222-71.705-27.674-109.448c17.198-39.229,58.089-61.837,100.049-53.759
		c17.582,3.388,30.394-2.912,39.914-15.758c29.9-40.355,3.488-87.328-31.981-92.523c-22.484-3.295-43.772-10.049-60.599-27.313
		C62.8,150.26,53.957,109.523,68.619,74.568c15.253-36.364,50.228-60.92,88.476-60.387c61.519,0.861,103.032,54.626,95.745,107.861
		c-1.668,12.196-5.834,24.292-1.8,37.356c6.146,19.9,20.347,30.302,39.001,34.366c17.926,3.905,34.869,0.823,46.07-16.368
		c1.178-1.808,2.585-3.648,4.296-4.908c13.923-10.206,13.821-23.169,9.495-38.4c-8.17-28.793,3.312-58.745,27.263-72.67
		c24.298-14.126,48.757-14.649,72.222,2.051c22.396,15.941,28.674,38.865,24.642,64.571c-3.984,25.439-25.021,44.263-52.062,50.054
		c-6.048,1.295-12.491,3.669-17.945,1.747c-18.513-6.543-25.535,8.353-34.914,17.998c-9.003,9.265-12.05,20.875-8.195,33.795
		c5.377,18.026,7.835,36.229,6.783,55.276c-1.573,28.614,8.622,38.921,37.602,38.459c21.256-0.341,38.438,6.555,50.858,23.715
		c13.726,18.958,14.197,43.788,1.965,62.526c-12.304,18.853-38.026,30.717-58.541,27.002c-25.749-4.659-44.404-21.189-49.197-44.133
		c-1.422-6.773-1.985-13.762-2.498-20.688c-1.407-19.075-15.904-28.436-32.393-19.602c-18.341,9.828-36.925,11.015-56.753,6.351
		c-33.396-7.856-43.805,0.728-43.348,34.817C215.414,397.108,215.393,398.854,215.393,397.249z"/>
</g>
<g id="informantes" display="none">
	<g display="inline">
		<path d="M252.786,14.173c13.348,0.956,28.249-1.288,42.883,2.836c8.583,2.418,18.936,4.091,23.685,10.777
			c14.398,20.275,42.623,22.29,55.541,43.161c14.679,23.717,17.367,50.376,14.969,77.688c-0.77,8.778-1.752,17.542-2.851,26.289
			c-0.344,2.747,0.252,4.884,2.665,6.06c15.138,7.38,14.422,21.148,13.042,34.387c-1.551,14.891-7.111,28.684-15.616,41.11
			c-2.507,3.662-5.659,7.767-9.997,8.287c-12.712,1.534-15.965,11.379-20.31,20.807c-10.227,22.185-24.034,41.894-43.756,56.564
			c-39.826,29.635-95.201,22.696-130.482-15.354c-13.247-14.291-23.664-30.239-31.574-47.933
			c-2.839-6.352-6.218-10.408-14.107-12.697c-23.094-6.704-37.292-65.985-19.815-81.979c5.956-5.452,6.479-9.572,5.818-17.177
			c-2.208-25.475-5.622-50.999,0.823-76.625c10.049-39.962,40.141-67.354,80.905-73.471
			C220.205,14.566,235.767,14.732,252.786,14.173z M176.79,148.984c-7.155-1.968-12.916,0.221-14.178,7.371
			c-1.59,8.994-3.806,18.141-2.214,27.434c1.288,7.545,3.898,14.578,13.197,14.262c10.175-0.344,6.201-8.887,6.348-13.847
			c0.322-11.054,2.985-16.532,16.106-15.348c35.356,3.196,68.28-6.194,99.065-23.202c20.225-11.17,21.87-11.127,35.449,8.186
			c2.49,3.544,3.937,7.809,5.975,11.681c1.764,3.346,4.185,6.452,8.369,5.466c4.393-1.031,6.256-4.491,6.333-9.05
			c0.086-5.445-2.002-10.121-4.507-14.742c-6.83-12.607-16.896-22.276-27.854-31.217c-6.704-5.472-12.465-7.037-18.948,0.801
			c-3.187,3.848-8.199,6.366-12.707,8.904C252.818,145.039,216.542,155.619,176.79,148.984z"/>
		<path d="M126.129,394.64c-9.063-16.117-17.492-31.136-25.957-46.13c-4.452-7.89-2.457-13.806,5.456-17.823
			c8.913-4.524,18.222-8.384,26.75-13.537c8.227-4.977,12.835-3.83,18.155,4.578c20.227,31.967,48.5,53.215,86.331,59.689
			c49.149,8.411,88.117-8.959,117.369-48.691c15.415-20.938,15.127-21.15,38.528-9.308c3.213,1.628,6.466,3.19,9.602,4.956
			c11.347,6.389,13.042,11.195,6.861,22.257c-6.645,11.888-13.334,23.824-21.051,35.015c-5.248,7.606-4.205,8.609,4.729,10.48
			c31.176,6.527,61.148,16.212,83.757,40.766c10.354,11.244,14.082,25.036,14.984,39.576c0.76,12.256-6.568,19.36-19.287,19.394
			c-58.303,0.151-116.606-0.076-174.907,0.2c-9.235,0.046-12.72-3.729-11.36-12.27c2.386-15.001,5.238-29.93,7.688-44.919
			c0.984-6.036,6.992-13.807-3.107-17.104c-8.364-2.73-20.528,5.052-22.377,13.604c-2.869,13.271-5.549,26.614-7.509,40.042
			c-2.85,19.54-3.566,20.568-22.97,20.578c-66.343,0.024-132.688,0.029-199.031-0.02c-16.269-0.012-21.317-5.636-20.066-22.223
			c1.956-25.94,16-44.183,37.993-56.217C78.151,405.806,101.125,397.8,126.129,394.64z"/>
	</g>
</g>
<g id="brutalidade" display="none">
	<g display="inline">
		<path d="M430.38,185.925c0,23.546-0.269,46.982,0.071,70.407c0.377,26.39-6.919,50.603-20.917,72.574
			c-11.553,18.13-17.612,36.784-16.212,58.771c1.73,27.174,0.838,54.514,1.025,81.78c0.124,18.434-5.927,24.7-24.108,24.728
			c-42.51,0.068-85.019-0.136-127.525,0.123c-14.795,0.091-29.581,1.717-44.371,1.753c-19.321,0.054-29.321-10.723-28.969-30.159
			c0.528-29.264,0.98-58.533,1.777-87.789c0.383-14.084-4.569-25.299-14.564-35.297c-19.546-19.558-40.163-38.096-57.942-59.371
			c-12.76-15.271-19.877-32.373-18.758-52.818c1.509-27.581-1.63-55.327,2.03-82.825c2.104-15.803,10.446-22.855,26.694-23.064
			c30.873-0.398,61.753-0.386,92.632-0.28c13.297,0.044,23.026,6.724,26.184,17.115c4.063,13.369-1.066,29.179-11.469,36.684
			c-11.168,8.055-23.861,8.013-36.755,7.982c-18.086-0.042-18.076,0.404-16.757,18.069c0.435,5.851,2.712,7.524,8.125,7.397
			c9.619-0.233,19.25-0.118,28.873,0.042c31.198,0.522,61.578,30.954,62.445,62.478c0.066,2.401,0.098,4.812,0.018,7.213
			c-0.212,6.432,0.804,13.33,8.401,13.332c6.912,0.002,9.289-6.012,9.444-12.897c0.558-24.861-7.561-46.312-24.734-64.219
			c-4.382-4.567-9.502-8.427-15.174-13.395c10.662-5.774,19.189-10.208,26.196-16.76c3.616-3.381,6.045-1.806,9.312,0.448
			c21.148,14.595,42.944,15.783,65.187,2.489c3.56-2.127,6.181-3.442,10.642-0.481c27.617,18.334,49.81,17.019,75.111-3.666
			C426.758,185.905,427.724,186.133,430.38,185.925z"/>
		<path d="M340.988,101.471c-0.004,16.819,0.143,33.637-0.045,50.454c-0.188,16.823-13.551,28.671-31.745,28.492
			c-16.693-0.162-29.138-12.123-29.089-28.539c0.104-34.404,0.308-68.811,0.813-103.21c0.266-17.737,10.641-27.634,27.733-27.413
			c18.246,0.237,31.905,12.035,32.255,28.563C341.275,67.03,340.991,84.253,340.988,101.471z"/>
		<path d="M356.65,109.513c0-15.645-0.112-31.29,0.035-46.934c0.13-13.679,8.092-22.871,21.35-24.515
			c23.875-2.961,44.686,9.946,42.882,36.606c-1.701,25.158-0.512,50.521-0.362,75.79c0.071,12.24-3.999,22.239-15.249,27.798
			c-12.029,5.944-24.788,7.117-36.829,0.318c-8.159-4.609-11.97-12.417-11.834-22.132c0.222-15.642,0.058-31.289,0.058-46.932
			C356.683,109.513,356.667,109.513,356.65,109.513z"/>
		<path d="M239.011,178.98c4.313-11.27,7.725-21.5,6.497-32.385c-2.105-18.672-13.566-30.653-30.215-36.901
			c-8.983-3.373-10.989-8.153-10.66-16.735c0.616-15.99,0.229-32.018,0.377-48.028c0.161-17.723,13.482-30.793,31.192-30.757
			c14.764,0.03,28.063,13.659,28.213,30.15c0.266,28.415-0.148,56.836-0.28,85.255c-0.035,7.205,0.191,14.424-0.183,21.612
			C263.184,165.935,255.01,175.379,239.011,178.98z"/>
		<path d="M189.114,69.848c0,9.204-0.18,18.413,0.062,27.61c0.177,6.748-2.822,9.168-9.404,9.043
			c-13.604-0.259-27.213-0.036-40.821-0.009c-9.457,0.02-13.669-4.515-13.441-14.129c0.363-15.201-0.091-30.417,0.173-45.621
			c0.314-18.166,15.218-31.808,33.827-31.379c18.469,0.426,29.531,12.167,29.749,31.672c0.085,7.603,0.016,15.208,0.016,22.812
			C189.218,69.848,189.167,69.848,189.114,69.848z"/>
	</g>
</g>
<g id="rigidez" display="none">
	<g display="inline">
		<path d="M469.322,255.897c0.02,30.478-0.552,60.968,0.215,91.428c0.522,20.822-8.226,35.35-25.707,45.467
			c-56.129,32.506-112.248,65.023-168.387,97.508c-12.753,7.38-25.633,7.854-38.557,0.361
			c-58.252-33.777-116.648-67.31-174.648-101.512c-14.241-8.396-21.631-21.743-21.562-39.059
			c0.248-62.191,0.231-124.383,0.099-186.572c-0.043-19.76,7.285-34.146,25.201-44.315c57.479-32.63,114.559-65.969,171.5-99.534
			c11.559-6.813,21.889-7.519,33.405-0.86c59.688,34.52,119.513,68.82,179.216,103.318c13.788,7.967,19.321,20.526,19.254,36.159
			C469.202,190.823,469.302,223.362,469.322,255.897z M366.876,282.506c0.015,0,0.023,0,0.038,0c0-19.338-0.01-38.676,0.006-58.014
			c0.009-8.271-2.405-14.279-11.979-15.464c-17.668-2.189-17.645-2.386-17.692-19.901c-0.01-4.524,0.227-9.069-0.101-13.572
			c-1.571-21.769-8.59-40.875-27.229-54.057c-22.564-15.96-47.908-21.767-74.751-17.012c-29.744,5.27-51.036,21.671-58.521,52.464
			c-3.147,12.947-1.643,26.223-1.274,39.299c0.266,9.548-2.366,13.093-12.442,12.792c-15.02-0.448-17.68,2.264-17.919,16.875
			c-0.579,35.36-0.597,70.733-0.861,106.103c-0.119,15.993,6.563,27.991,19.542,37.596c24.965,18.476,53.269,30.553,80.923,43.91
			c4.893,2.363,10.161,2.506,15.521,0.313c32.343-13.225,63.593-28.521,92.111-48.891c10.324-7.381,15.394-17.312,14.81-30.602
			C366.301,317.097,366.876,299.79,366.876,282.506z"/>
		<path d="M253.777,209.001c-13.563,0-27.13-0.185-40.686,0.077c-6.861,0.136-9.635-2.503-9.257-9.464
			c0.425-7.788-0.058-15.618,0.095-23.422c0.487-24.989,16.271-42.37,42.043-46.452c25.363-4.017,52.02,10.133,58.669,32.048
			c4.105,13.536,1.375,27.717,1.51,41.605c0.059,6.302-5.433,5.064-9.229,5.112c-14.382,0.168-28.769,0.067-43.146,0.067
			C253.777,208.716,253.777,208.86,253.777,209.001z"/>
		<path d="M235.754,317.146c-0.025-10.563,0.749-20.701-6.085-30.604c-5.754-8.341-1.308-27.372,5.111-33.487
			c7.917-7.543,25.48-10.229,35.973-5.251c14.698,6.971,18.325,19.448,11.638,35.787c-6.354,15.512-5.769,30.046-6.544,45.29
			c-0.725,14.253-6.324,20.966-18.23,21.664c-14.654,0.86-21.499-5.315-21.844-19.81
			C235.662,326.206,235.754,321.676,235.754,317.146z"/>
	</g>
</g>
<g id="inducao" display="none">
	<g display="inline">
		<path d="M203.823,475.995c-55.545,0-111.089,0.05-166.634-0.024c-20.67-0.028-24.795-5.531-22.414-26.149
			c2.321-20.068,13.083-34.331,28.826-45.51c16.141-11.459,34.403-18.77,52.695-25.951c20.948-8.229,30.153-21.467,30.717-44.072
			c0.063-2.507-0.131-5.051,0.223-7.518c2.917-20.465-1.181-36.088-20.178-49.574c-24.111-17.12-33.989-54.491-10.525-83.798
			c3.666-4.581,4.15-9.167,3.608-14.917c-3.853-40.873,0.833-79.626,32.466-109.82c30.546-29.154,68.11-38.039,108.95-33.487
			c34.537,3.856,62.597,20.265,84.439,47.641c16.174,20.266,21.404,43.884,23.291,68.765c0.375,4.977,0.338,10.083-0.33,15.021
			c-2.061,15.231-0.804,28.962,12.941,39.153c3.845,2.853,6.487,7.618,9.014,11.903c10.027,16.992,3.833,33.176-15.092,38.482
			c-4.708,1.318-7.088,1.988-5.139,7.379c1.521,4.227-0.516,10.636,7.829,9.53c10.832-1.432,20.877-1.692,26.101-15.032
			c5.969-15.25,24.633-19.75,39.17-11.724c13.237,7.311,17.299,22.708,9.764,37.005c-8.207,15.563-24.439,22.704-37.334,13.115
			c-16.813-12.503-31.979-2.003-47.85-0.74c-4.339,0.346-3.141,4.256-2.979,6.799c0.463,7.115,1.367,14.199,2.041,21.303
			c1.021,10.822-4.268,17.646-13.896,21.608c-11.762,4.839-23.732,7.259-36.571,4.667c-10.882-2.197-20.397,3.042-23.536,11.979
			c-2.748,7.823,0.829,13.049,8.854,14.293c32.543,5.038,63.155,15.34,88.863,36.586c13.695,11.323,21.782,26.246,21.36,44.822
			c-0.32,14.181-4.238,18.367-18.821,18.395c-56.616,0.104-113.238,0.045-169.855,0.045
			C203.823,476.112,203.823,476.053,203.823,475.995z M143.106,239.865c-0.14,16.673,13.159,30.739,29.101,30.79
			c15.897,0.05,31.143-14.862,31.411-30.728c0.279-16.453-13.428-29.929-30.842-30.313
			C157.057,209.261,143.243,223.35,143.106,239.865z M168.2,314.351c0.203,12.558,11.203,23.494,23.243,23.108
			c11.637-0.375,21.902-11.634,21.511-23.596c-0.4-12.287-10.792-22.614-22.734-22.595
			C178.504,291.292,168.004,302.296,168.2,314.351z M208.655,351.492c-8.686-0.228-15.929,7.01-16.244,16.231
			c-0.367,10.688,6.191,18.633,15.789,19.125c8.624,0.442,17.199-7.729,17.496-16.679
			C225.997,361.071,217.473,351.726,208.655,351.492z"/>
		<path d="M496.06,192.256c-0.321,29.855-17.77,47.604-45.709,47.813c-28.941,0.217-47.312-19.55-47.759-49.024
			c-0.378-24.623,22.989-46.729,48.003-46.707C476.419,144.364,496.351,165.368,496.06,192.256z"/>
	</g>
</g>
</svg>
