<?xml version="1.0" encoding="utf-8"?>
<!-- Generator: Adobe Illustrator 16.0.0, SVG Export Plug-In . SVG Version: 6.00 Build 0)  -->
<!DOCTYPE svg PUBLIC "-//W3C//DTD SVG 1.1//EN" "http://www.w3.org/Graphics/SVG/1.1/DTD/svg11.dtd">
<svg version="1.1" id="Layer_1" xmlns="http://www.w3.org/2000/svg" xmlns:xlink="http://www.w3.org/1999/xlink" x="0px" y="0px"
	 width="510.236px" height="510.236px" viewBox="0 0 510.236 510.236" enable-background="new 0 0 510.236 510.236"
	 xml:space="preserve">
<path fill="#FFFFFF" d="M255.117,255.118c-53.836,0-99.391-35.295-114.826-84.047c-1.036,1.224-2.07,2.446-3.294,3.576
	c-14.87,14.87-36.52,19.481-50.448,20.799c-7.624,0.754-13.741-5.364-12.988-12.987c1.317-13.836,5.93-35.577,20.8-50.448
	c5.46-5.459,11.859-9.506,18.447-12.611c-6.588-3.013-12.987-7.154-18.447-12.613c-14.87-14.776-19.388-36.424-20.8-50.354
	c-0.753-7.624,5.364-13.742,12.988-12.989c13.835,1.317,35.578,5.929,50.448,20.801c4.519,4.518,8.188,9.788,11.012,15.153
	c19.955-38.682,60.426-65.224,107.109-65.224c66.542,0,120.472,53.93,120.472,120.474
	C375.591,201.188,321.659,255.118,255.117,255.118z M44.29,468.112c0-77.934,53.083-143.346,124.99-162.264
	c5.647-1.506,11.482,0.848,14.965,5.459l58.825,78.4c6.023,8.002,18.071,8.002,24.094,0l58.824-78.4
	c3.482-4.611,9.318-6.965,14.965-5.459c71.908,18.918,124.992,84.33,124.992,162.264c0,15.434-12.52,27.951-27.955,27.951H72.243
	C56.807,496.063,44.29,483.546,44.29,468.112z M194.881,104.528c-8.282,0-15.06,6.776-15.06,15.06c0,8.282,6.776,15.06,15.06,15.06
	h120.473c8.281,0,15.059-6.777,15.059-15.06c0-8.283-6.775-15.06-15.059-15.06H194.881z"/>
</svg>
